# Made in Blockbench 4.2.1
mtllib TC&S2_3DM_1.mtl

o cube
v -0.671875 0.0546875 -0.20312500000000014
v -0.671875 0.0234375 -0.20312500000000014
v 0.296875 0.0546875 -0.20312499999999992
v 0.296875 0.0234375 -0.20312499999999992
v -0.671875 0.0234375 -0.17187500000000014
v -0.671875 0.0546875 -0.17187500000000014
v 0.296875 0.0234375 -0.17187499999999992
v 0.296875 0.0546875 -0.17187499999999992
vt 0 0.78125
vt 0.125 0.78125
vt 0.125 0
vt 0 0
vt 0 0.78125
vt 0.125 0.78125
vt 0.125 0
vt 0 0
vt 0 0.78125
vt 0.125 0.78125
vt 0.125 0
vt 0 0
vt 0 0.78125
vt 0.125 0.78125
vt 0.125 0
vt 0 0
vt 0 0.28125
vt 0.125 0.28125
vt 0.125 0.15625
vt 0 0.15625
vt 0 1
vt 0.125 1
vt 0.125 0.875
vt 0 0.875
vn 4.930380657631324e-32 -1 -2.220446049250313e-16
vn 2.220446049250313e-16 2.220446049250313e-16 -1
vn -4.930380657631324e-32 1 2.220446049250313e-16
vn -2.220446049250313e-16 -2.220446049250313e-16 1
vn -1 4.930380657631324e-32 -2.220446049250313e-16
vn 1 -4.930380657631324e-32 2.220446049250313e-16
usemtl m_0
f 4/4/1 7/3/1 5/2/1 2/1/1
f 3/8/2 4/7/2 2/6/2 1/5/2
f 8/12/3 3/11/3 1/10/3 6/9/3
f 7/16/4 8/15/4 6/14/4 5/13/4
f 6/20/5 1/19/5 2/18/5 5/17/5
f 7/24/6 4/23/6 3/22/6 8/21/6